<svg xmlns="http://www.w3.org/2000/svg" version="1.1" xmlns:xlink="http://www.w3.org/1999/xlink" xmlns:svgjs="http://svgjs.dev/svgjs" width="308.7612359841165" height="304.915625" viewBox="0 0 2000 5951"><g transform="matrix(1,0,0,1,-5.701812337665274,2.409312387249429)"><svg viewBox="0 0 83 247" data-background-color="#ffffff" preserveAspectRatio="xMidYMid meet" height="5951" width="2000" xmlns="http://www.w3.org/2000/svg" xmlns:xlink="http://www.w3.org/1999/xlink"><g id="tight-bounds" transform="matrix(1,0,0,1,0.23662521201310938,-0.09999997317245857)"><svg viewBox="0 0 82.52674957597384 247.2" height="247.2" width="82.52674957597384"><g><svg viewBox="0 0 181.523904 543.735325810819" height="247.2" width="82.52674957597384"><g><rect width="181.523904" height="22.292751110399998" x="0" y="164.41284279001897" fill="#096a2e" opacity="1" stroke-width="0" stroke="transparent" fill-opacity="1" class="rect-o-0" data-fill-palette-color="primary" rx="1%" id="o-0" data-palette-color="#096a2e"></rect></g><g><rect width="181.523904" height="22.292751110399998" x="0" y="215.88458750041897" fill="#096a2e" opacity="1" stroke-width="0" stroke="transparent" fill-opacity="1" class="rect-o-1" data-fill-palette-color="primary" rx="1%" id="o-1" data-palette-color="#096a2e"></rect></g><g transform="matrix(1,0,0,1,0.4515519999999924,296.53532581081896)"><svg viewBox="0 0 180.6208 247.2" height="247.2" width="180.6208"><g id="textblocktransform"><svg viewBox="0 0 180.6208 247.2" height="247.2" width="180.6208" id="textblock"><g><svg viewBox="0 0 180.6208 247.2" height="247.2" width="180.6208"><g transform="matrix(1,0,0,1,0,0)"><svg width="180.6208" viewBox="1.0499992370605469 -37.5 27.400001525878906 37.5" height="247.2" data-palette-color="#096a2e"><path d="M23.95-32.3L23.95-32.3Q22.35-32.3 20.68-32.58 19-32.85 17.3-33.2L17.3-33.2 17.3-21.75 24.7-21.75 24.7-18.8 17.3-18.8 17.3 0 11.9 0 11.9-34.1Q11.65-34.15 11.43-34.15 11.2-34.15 10.95-34.15L10.95-34.15Q9.65-34.15 8.5-33.8 7.35-33.45 6.53-32.6 5.7-31.75 5.23-30.33 4.75-28.9 4.75-26.75L4.75-26.75Q4.75-24.05 5.43-22.23 6.1-20.4 7-19.65L7-19.65Q1.05-19.65 1.05-26.2L1.05-26.2Q1.05-28.6 1.85-30.65 2.65-32.7 4.35-34.23 6.05-35.75 8.68-36.63 11.3-37.5 14.95-37.5L14.95-37.5Q16.2-37.5 17.32-37.4 18.45-37.3 19.5-37.2 20.55-37.1 21.65-37 22.75-36.9 24-36.9L24-36.9Q25.25-36.9 26.35-37.02 27.45-37.15 28.45-37.5L28.45-37.5Q28.35-35.75 27.98-34.73 27.6-33.7 27-33.18 26.4-32.65 25.63-32.48 24.85-32.3 23.95-32.3Z" opacity="1" transform="matrix(1,0,0,1,0,0)" fill="#096a2e" class="undefined-text-0" data-fill-palette-color="primary" id="text-0"></path></svg></g></svg></g></svg></g></svg></g><g transform="matrix(1,0,0,1,34.95012479999998,0)"><svg viewBox="0 0 111.62365440000002 106.05485559001897" height="106.05485559001897" width="111.62365440000002"><g><svg xmlns="http://www.w3.org/2000/svg" xmlns:xlink="http://www.w3.org/1999/xlink" version="1.1" x="0" y="0" viewBox="4.900000095367432 6.900000095367432 90.19998931884766 85.69999694824219" style="enable-background:new 0 0 100 100;" xml:space="preserve" height="106.05485559001897" width="111.62365440000002" class="icon-icon-0" data-fill-palette-color="accent" id="icon-0"><path d="M22.2 92.6l5-29.2c0.2-1.2-0.2-2.3-1-3.1L4.9 39.7l29.3-4.3c1.2-0.2 2.2-0.9 2.7-1.9L50 6.9l13.1 26.5c0.5 1 1.5 1.8 2.7 1.9l29.3 4.3L73.9 60.3c-0.8 0.8-1.2 2-1 3.1l5 29.2L51.7 78.9c-1-0.5-2.3-0.5-3.3 0L22.2 92.6zM50 76.5c0.9 0 1.8 0.2 2.6 0.6L75.2 89l-4.3-25.2c-0.3-1.8 0.3-3.6 1.6-4.9l18.3-17.8-25.3-3.7c-1.8-0.3-3.4-1.4-4.2-3L50 11.4 38.7 34.4c-0.8 1.6-2.4 2.8-4.2 3L9.2 41.1l18.3 17.8c1.3 1.3 1.9 3.1 1.6 4.9L24.8 89l22.6-11.9C48.2 76.7 49.1 76.5 50 76.5z" fill="#10074f" data-fill-palette-color="accent"></path></svg></g></svg></g><g></g></svg></g><defs></defs></svg><rect width="82.52674957597384" height="247.2" fill="none" stroke="none" visibility="hidden"></rect></g></svg></g></svg>